# xmcd
#
# Track frame offsets: 
#        150
#        13533
#        27794
#        42031
#        53694
#        64304
#        76425
#        86123
#        97398
#        113874
#        125733
#
# Disc length: 1847 seconds
#
# Revision: 2
# Processed by: cddbd v1.5.2PL0 Copyright (c) Steve Scherf et al.
# Submitted via: ExactAudioCopy v1.0b1
#
DISCID=9107350b
DTITLE=Chris LeDoux - Songs Of Rodeo And Country
DYEAR=1973
DGENRE=Country
TTITLE0=The Buckskin Lady
TTITLE1=Oklahoma Joe
TTITLE2=Daydream Cowboy
TTITLE3=Rodeo, You've Cast A Spell
TTITLE4=True Western Movie
TTITLE5=Joade The Rodeo Clown
TTITLE6=Mighty Lucky Man
TTITLE7=Easy Come, Easy Go
TTITLE8=The Only Road You Know
TTITLE9=She's In Love With A Rodeo Man
TTITLE10=Real Live Buckeroo
EXTD=
EXTT0=
EXTT1=
EXTT2=
EXTT3=
EXTT4=
EXTT5=
EXTT6=
EXTT7=
EXTT8=
EXTT9=
EXTT10=
PLAYORDER=
